<svg xmlns="http://www.w3.org/2000/svg" viewBox="0 3.58 102.5 95.77">
  <rect y="3.58" width="102.5" height="95.77" rx="8.09" fill="#bf202f"/>
  <path fill="#fff" d="M20.92,51.47a30,30,0,0,1,4.41-15.71H17.55A37.06,37.06,0,0,0,77,78H65.57A30.2,30.2,0,0,1,20.92,51.47Z"/>
  <path fill="#fff" d="M81.34,51.47a30.16,30.16,0,0,1-4.43,15.74H84.7A37.07,37.07,0,0,0,25.23,25H36.64a30.2,30.2,0,0,1,44.7,26.5Z"/>
  <path fill="#fff" d="M37.41,37.12l9,30.09h7.44L44.19,35.07A11.76,11.76,0,0,0,40,29.17a11.38,11.38,0,0,0-6.77-2.37H10.81l1.94,7.13H33.28A4.71,4.71,0,0,1,37.41,37.12Z"/>
  <path fill="#fff" d="M65.1,65.86l-9-30.09H48.66l9.66,32.14a11.76,11.76,0,0,0,4.19,5.9,11.28,11.28,0,0,0,6.76,2.37H91.74l-1.93-7.13H69.22A4.7,4.7,0,0,1,65.1,65.86Z"/>
</svg>
