<svg id="Layer_1" data-name="Layer 1" xmlns="http://www.w3.org/2000/svg" width="450.88" height="99.35" viewBox="0 0 450.88 99.35"><defs><style>.cls-1{fill:#bf202f;}.cls-2,.cls-4{fill:none;}.cls-3{fill:#fff;}.cls-4{stroke:#2bb7c8;stroke-miterlimit:10;}</style></defs><path class="cls-1" d="M345.89,36.07a7.79,7.79,0,1,1-6.63,8.8v-.24A7.82,7.82,0,0,1,345.89,36.07Z" transform="translate(0 0)"/><rect class="cls-1" y="3.58" width="102.5" height="95.77" rx="8.09"/><path class="cls-2" d="M198.69,68.05a4.45,4.45,0,0,0,1.44,3.41,5.56,5.56,0,0,0,3.92,1.33,7.24,7.24,0,0,0,5.59-2.37,8.55,8.55,0,0,0,2.16-6V61.76l-7.17.92Q198.69,63.46,198.69,68.05Z" transform="translate(0 0)"/><path class="cls-3" d="M141.64,29,129.5,32.44V41h-6.4v9h6.4V68.06q0,13.38,12.89,13.38c3.62,0,6.34-.47,8.14-1.42V71a8.28,8.28,0,0,1-4,1.12q-4.89,0-4.89-6.17V50h8.86V41h-8.87Z" transform="translate(0 0)"/><path class="cls-3" d="M169.72,48.3h-.16V41H157.37V80.5h12.19V61.56a12.68,12.68,0,0,1,2.24-7.92,7.4,7.4,0,0,1,6.2-2.91,10.64,10.64,0,0,1,5.13,1.19V40.74a7.86,7.86,0,0,0-3-.47Q172.63,40.27,169.72,48.3Z" transform="translate(0 0)"/><path class="cls-3" d="M206.36,40a36.5,36.5,0,0,0-8,1,30.26,30.26,0,0,0-7,2.31v9.18a24,24,0,0,1,13.42-4.2q7,0,7,6.48l-10.72,1.42Q187.5,58,187.5,69.47a11.69,11.69,0,0,0,3.3,8.7q3.3,3.27,9,3.26a12.86,12.86,0,0,0,11.77-6.63h.15v5.67h11.54V56.86Q223.26,40,206.36,40Zm5.44,24.42a8.6,8.6,0,0,1-2.16,6,7.24,7.24,0,0,1-5.59,2.37,5.56,5.56,0,0,1-3.92-1.33,4.45,4.45,0,0,1-1.44-3.41q0-4.59,5.94-5.37l7.17-.92Z" transform="translate(0 0)"/><path class="cls-3" d="M257.94,40a14,14,0,0,0-12.69,7.22h-.16V41H232.9V80.5h12.19V57.94a9.25,9.25,0,0,1,2-6.17,6.54,6.54,0,0,1,5.21-2.43q6.56,0,6.56,9.18V80.47H271V56.28Q271.06,40,257.94,40Z" transform="translate(0 0)"/><path class="cls-3" d="M308.68,60.91a14.62,14.62,0,0,0-3.38-2.35,33.28,33.28,0,0,0-4.4-1.85l-2.72-.91a18.36,18.36,0,0,1-2.48-1,6.28,6.28,0,0,1-1.82-1.33,2.7,2.7,0,0,1-.69-1.86,2.33,2.33,0,0,1,.46-1.44,3.45,3.45,0,0,1,1.27-1,7.41,7.41,0,0,1,1.88-.62,12.16,12.16,0,0,1,2.25-.21,20.64,20.64,0,0,1,5.19.67,19.3,19.3,0,0,1,5,2V41.56a39,39,0,0,0-5.33-1.18,35.1,35.1,0,0,0-5.32-.41,28.12,28.12,0,0,0-6.46.72,17.8,17.8,0,0,0-5.52,2.23,11.92,11.92,0,0,0-3.85,3.92,10.78,10.78,0,0,0-1.45,5.71,12.21,12.21,0,0,0,.64,4.2,9.11,9.11,0,0,0,1.85,3.13,11.85,11.85,0,0,0,3,2.37,28.72,28.72,0,0,0,4.14,1.91,28.51,28.51,0,0,0,3,1,27,27,0,0,1,2.91,1A8.29,8.29,0,0,1,299,67.51a2.5,2.5,0,0,1,.85,1.93,2.86,2.86,0,0,1-1.87,2.7,12.23,12.23,0,0,1-5.11.89,19.67,19.67,0,0,1-5.65-.89,25.9,25.9,0,0,1-6-2.7v9.88a35.43,35.43,0,0,0,12.07,2,32.19,32.19,0,0,0,6.85-.71A18.47,18.47,0,0,0,306,78.33a12.13,12.13,0,0,0,4.06-4A12.69,12.69,0,0,0,310.82,64,9.32,9.32,0,0,0,308.68,60.91Z" transform="translate(0 0)"/><rect class="cls-3" x="318.61" y="39.96" width="12.19" height="40.5"/><rect class="cls-3" x="340.87" y="55.2" width="12.19" height="25.27"/><path class="cls-3" d="M388.5,40a14,14,0,0,0-12.69,7.22h-.15V41H363.5V80.5h12.2V57.94a9.25,9.25,0,0,1,2-6.17,6.54,6.54,0,0,1,5.21-2.43q6.55,0,6.56,9.18V80.47h12.15V56.28Q401.67,40,388.5,40Z" transform="translate(0 0)"/><polygon class="cls-3" points="435.72 59.52 449.88 40.97 435.41 40.97 423.64 59.21 423.49 59.21 423.49 21.99 411.3 21.99 411.3 80.47 423.49 80.47 423.49 60.87 423.64 60.87 436.26 80.47 450.88 80.47 435.72 59.52"/><path class="cls-3" d="M20.92,51.47a30,30,0,0,1,4.41-15.71H17.55A37.06,37.06,0,0,0,77,78H65.57A30.2,30.2,0,0,1,20.92,51.47Z" transform="translate(0 0)"/><path class="cls-3" d="M81.34,51.47a30.16,30.16,0,0,1-4.43,15.74H84.7A37.07,37.07,0,0,0,25.23,25H36.64a30.2,30.2,0,0,1,44.7,26.5Z" transform="translate(0 0)"/><path class="cls-3" d="M37.41,37.12l9,30.09h7.44L44.19,35.07A11.76,11.76,0,0,0,40,29.17a11.38,11.38,0,0,0-6.77-2.37H10.81l1.94,7.13H33.28A4.71,4.71,0,0,1,37.41,37.12Z" transform="translate(0 0)"/><path class="cls-3" d="M65.1,65.86l-9-30.09H48.66l9.66,32.14a11.76,11.76,0,0,0,4.19,5.9,11.28,11.28,0,0,0,6.76,2.37H91.74l-1.93-7.13H69.22A4.7,4.7,0,0,1,65.1,65.86Z" transform="translate(0 0)"/><path class="cls-2" d="M89.76,69.05H69.22a4.7,4.7,0,0,1-4.12-3.19l-9-30.09H48.66l9.66,32.14a11.76,11.76,0,0,0,4.19,5.9,11.28,11.28,0,0,0,6.76,2.37H91.74Z" transform="translate(0 0)"/><path class="cls-4" d="M335.36,36" transform="translate(0 0)"/><path class="cls-3" d="M346.77,0a45.7,45.7,0,0,0-32.55,13.47.55.55,0,0,0-.18.4.56.56,0,0,0,.17.4.6.6,0,0,0,.81,0,45,45,0,0,1,63.5,0,.58.58,0,0,0,.81,0,.57.57,0,0,0,0-.8A45.72,45.72,0,0,0,346.77,0Z" transform="translate(0 0)"/><path class="cls-3" d="M346.77,9A36.2,36.2,0,0,0,321,19.62a.84.84,0,0,0-.24.58.78.78,0,0,0,.24.58.82.82,0,0,0,1.16,0h0a34.83,34.83,0,0,1,49.18,0,.84.84,0,0,0,1.16,0,.82.82,0,0,0,0-1.16h0A36.2,36.2,0,0,0,346.77,9Z" transform="translate(0 0)"/><path class="cls-3" d="M346.77,17.56a26.64,26.64,0,0,0-18.94,7.83,1.06,1.06,0,0,0,.1,1.51,1.08,1.08,0,0,0,1.41,0,24.67,24.67,0,0,1,34.85,0,1.06,1.06,0,0,0,1.51,0,1,1,0,0,0,.32-.76,1.08,1.08,0,0,0-.31-.76A26.65,26.65,0,0,0,346.77,17.56Z" transform="translate(0 0)"/><path class="cls-3" d="M358.93,32.2a17.24,17.24,0,0,0-24.33,0,2.49,2.49,0,0,0,0,3.5,2.51,2.51,0,0,0,3.49,0,12.29,12.29,0,0,1,17.35,0,2.44,2.44,0,0,0,1.75.73,2.47,2.47,0,0,0,1.75-4.21h0Z" transform="translate(0 0)"/></svg>